<svg width="119" height="46" viewBox="0 0 119 46" fill="none" xmlns="http://www.w3.org/2000/svg">
<g clip-path="url(#clip0_982_2407)">
<path fill-rule="evenodd" clip-rule="evenodd" d="M20.1481 0C20.9848 0 21.6758 0.606406 21.8267 1.43251L25.6734 22.4489H13.609V17.0454H18.9401L17.0537 5.63208H13.609V0H20.1481ZM12.0685 22.4489H0.00195312L3.84859 1.43251C3.9995 0.606406 4.69053 0 5.52725 0H12.0685V5.63208H8.6201L6.73301 17.0454H12.0685V22.4489Z" fill="#0C7FFC"/>
<path fill-rule="evenodd" clip-rule="evenodd" d="M12.8383 46.0001L19.2571 34.9542L25.6759 23.9075H12.8383V28.5813H17.6502L15.2446 32.7215L12.8391 36.8617V46.0001H12.8383ZM0 23.9067L6.41878 34.9534L12.8376 45.9994V36.8617L10.432 32.7215L8.02647 28.5813H12.8383V23.9075H0V23.9067Z" fill="#0C7FFC"/>
<path d="M111.527 30.7997V29.0436H119V30.7997H111.527ZM111.527 28.1202V27.3001L113.698 21.5581H116.023L113.543 28.121H111.527V28.1202ZM111.527 20.1405V18.3851H113.543C112.871 18.0837 112.198 17.7727 111.527 17.4513V15.1148L111.807 15.2625C112.897 15.8333 114.039 16.413 115.228 16.9934C116.412 17.5738 117.673 18.1691 119.001 18.7859H115.776V20.1412H111.527V20.1405ZM111.527 6.27626V4.52087H119V6.27626H114.504L117.418 12.3143H114.906L112.022 6.27626H111.527ZM111.527 4.52087V6.27626H108.582C108.302 7.09271 107.992 7.90398 107.657 8.70485C107.316 9.51092 106.954 10.3125 106.566 11.1134H104.365V10.4699C104.969 9.1925 105.518 7.89062 106.019 6.55905C106.597 5.00778 107.109 3.44686 107.558 1.87109H109.915C109.791 2.31792 109.673 2.75955 109.554 3.19598C109.435 3.63242 109.311 4.0733 109.171 4.52087H111.527ZM111.527 15.1148V17.4513C111.193 17.291 110.858 17.1285 110.525 16.963C109.528 16.4649 108.514 15.9357 107.487 15.3812C106.478 14.8372 105.434 14.2582 104.365 13.6452V11.6678H105.45C106.5 12.3039 107.549 12.9207 108.598 13.5116C109.552 14.0556 110.532 14.5878 111.527 15.1148ZM111.527 18.3843V20.1397H104.365V18.3843H111.527ZM111.527 27.3001V28.1202H111.217L111.527 27.3001ZM111.527 29.0443V30.8004H104.365V29.0443H111.527ZM104.365 28.1202V22.0265L106.38 28.1202H104.365ZM104.365 6.27626H104.675V4.52087H104.365V6.27626ZM104.365 4.52087V6.27626H99.9301L102.535 11.1134H99.9928L97.3885 6.27626H94.8455C94.4884 7.29312 94.0955 8.30998 93.6622 9.31645C93.2274 10.3281 92.7523 11.3294 92.2405 12.3151H89.8282V12.1844C90.6687 10.5627 91.4158 8.89635 92.0747 7.19663C92.7515 5.45089 93.3409 3.67398 93.8527 1.87184H96.2097C96.0857 2.31866 95.9616 2.76549 95.8324 3.20712C95.7084 3.65394 95.5739 4.09038 95.435 4.52161H104.365V4.52087ZM104.365 10.4699C104.263 10.6851 104.159 10.8996 104.055 11.1134H104.365V10.4699ZM104.365 11.6678H103.187C102.138 12.3039 101.088 12.9207 100.039 13.5116C98.9947 14.1068 97.9197 14.6873 96.8297 15.2618C95.739 15.8325 94.5968 16.4122 93.4082 16.9926C92.2823 17.5449 91.0856 18.1112 89.8275 18.6953V18.7844H93.1086V20.1397H104.365V18.3843H95.0936C96.0909 17.9323 97.0882 17.4595 98.0803 16.9622C99.0724 16.4642 100.081 15.935 101.109 15.3805C102.138 14.8253 103.201 14.2352 104.303 13.6088L104.365 13.6444V11.6678H104.365ZM104.365 22.0265V28.1202H104.023L101.884 21.5574H104.209L104.365 22.0265ZM104.365 29.0443V30.8004H89.8275H90.0195V29.0443H89.8275H104.365ZM89.8275 14.5329V14.2471L90.1749 14.5329H89.8275ZM97.5731 28.1202L95.1234 21.5574H92.7978L95.2474 28.1202H97.5731ZM89.8275 12.1837V12.3143H89.7595L89.8275 12.1837ZM89.8275 14.2471C88.3349 13.0135 86.8684 11.7532 85.4191 10.4721C83.8592 9.09081 82.3808 7.68873 80.9748 6.26141C79.5695 4.8341 78.2973 3.39119 77.1505 1.9327H75.5384V3.78532C77.1984 5.68321 78.9405 7.5247 80.7581 9.31645C82.5877 11.1134 84.5211 12.8539 86.5464 14.5329H89.8275V14.2471ZM89.8275 18.6953V18.7844H89.6355L89.8275 18.6953ZM75.5376 30.7997V29.0436H76.5611V13.1464H78.9181V18.97H87.6012V20.7253H78.9181V29.0436H89.8275H89.6968V30.7997H89.8275H75.5376ZM47.5175 14.1944H57.8128C58.19 14.1892 58.5367 14.0964 58.846 13.9124C59.1612 13.7327 59.4092 13.4863 59.6005 13.1835C59.7865 12.8755 59.8844 12.537 59.8904 12.1614V4.70495C59.8851 4.31973 59.7873 3.97607 59.6005 3.66211C59.4092 3.35408 59.1612 3.10691 58.846 2.92284C58.5359 2.73802 58.19 2.64599 57.8128 2.64079H47.5175V4.39618H56.3552C56.6914 4.40731 56.9648 4.52013 57.1867 4.74057C57.4094 4.96102 57.5229 5.23342 57.5334 5.56668V7.5388H47.5175V9.29567H57.5334V11.2678C57.5229 11.601 57.4094 11.8735 57.1867 12.0939C56.9648 12.3143 56.6907 12.4272 56.3552 12.4375H47.5175V14.1944ZM75.5376 1.93196V3.78532L75.507 3.75043C73.8478 5.67059 72.1011 7.53954 70.2716 9.36321C68.4368 11.1854 66.5146 12.9059 64.4983 14.5336H60.8705C62.5342 13.1627 64.1262 11.797 65.6465 10.4305C67.166 9.07003 68.6079 7.68353 69.9772 6.28145C71.3466 4.87492 72.6435 3.42682 73.8635 1.93196H75.5376ZM75.5376 29.0443V30.8004H61.0558V29.0443H66.6386V16.597H68.9948V29.0436H75.5376V29.0443ZM47.5175 31.0157V27.6029C48.0695 26.7271 48.5865 25.852 49.0676 24.9776C50.1733 22.9699 51.0623 20.9569 51.7346 18.9388H47.5175V17.1827H58.8049C59.1926 17.1878 59.5385 17.2851 59.8433 17.4699C60.1533 17.6599 60.3961 17.9063 60.5769 18.2203C60.7525 18.5283 60.8459 18.872 60.8511 19.2468V28.9515C60.8459 29.3271 60.7525 29.6708 60.5769 29.9788C60.3961 30.292 60.1526 30.5384 59.8433 30.7284C59.5385 30.9133 59.1926 31.0112 58.8049 31.0157H53.8436V29.2596H57.3167C57.6521 29.2492 57.9263 29.1363 58.1482 28.9159C58.3701 28.6947 58.4844 28.4231 58.4948 28.0883V19.5244C58.4896 19.3648 58.4328 19.2268 58.3185 19.1139C58.205 19.0011 58.066 18.9447 57.9054 18.9388H54.1529C53.4394 21.1365 52.5609 23.2526 51.5173 25.2908C50.4788 27.3297 49.2895 29.2343 47.9508 31.0157H47.5175ZM35.1446 12.1607C35.1491 12.5355 35.2424 12.874 35.418 13.1828C35.5988 13.4856 35.8423 13.732 36.1516 13.9116C36.4564 14.0964 36.8031 14.1885 37.1908 14.1937H47.5167V12.4368H38.6789C38.3435 12.4264 38.0701 12.3136 37.8475 12.0932C37.6256 11.8727 37.512 11.6003 37.5016 11.267V9.29493H47.5175V7.53806H37.5016V5.56742C37.512 5.23416 37.6256 4.96176 37.8475 4.74132C38.0701 4.52087 38.3435 4.40805 38.6789 4.39692H47.5167V2.64079H37.1915C36.8038 2.64599 36.4579 2.73802 36.1524 2.92284C35.8423 3.10766 35.5995 3.35408 35.4187 3.66211C35.2432 3.97533 35.1498 4.31898 35.1453 4.70495V12.1607H35.1446ZM47.5175 17.1827V18.9388H45.3472C44.6338 21.1365 43.7552 23.2526 42.7108 25.2908C41.6717 27.3297 40.4838 29.2343 39.1444 31.0157H36.3847C37.8631 28.9975 39.1548 26.9853 40.2605 24.9776C41.3669 22.9699 42.2559 20.9569 42.9275 18.9388H37.9042C37.5165 19.7864 37.0981 20.6229 36.6589 21.4498C36.2144 22.2766 35.7489 23.0827 35.2686 23.8687H32.6016C33.563 22.405 34.4154 20.9465 35.1595 19.494C35.9036 18.0414 36.5401 16.5829 37.0668 15.1185H39.4858C39.3618 15.4733 39.2325 15.8214 39.0928 16.1606C38.9591 16.505 38.8186 16.8435 38.6789 17.1827H47.5175ZM47.5175 27.6029C46.801 28.7393 46.0263 29.8764 45.1911 31.0157H47.5175V27.6029Z" fill="#111111"/>
<path d="M37.5717 45.4702L35.2109 36.6324H36.4182L37.7726 42.4248C37.9168 43.0319 38.0416 43.6346 38.1469 44.2336C38.3748 43.2887 38.507 42.7462 38.5488 42.5992L40.2409 36.6324H41.6611L42.9348 41.1058C43.2538 42.2147 43.4839 43.2583 43.6266 44.2336C43.7387 43.6754 43.8874 43.0334 44.0696 42.312L45.4637 36.6331H46.6485L44.2093 45.4709H43.0738L41.2002 38.7374C41.0433 38.1733 40.9491 37.8274 40.9208 37.6997C40.8274 38.105 40.7407 38.4509 40.66 38.7374L38.7729 45.4702H37.5717ZM68.4165 42.6304L69.5266 42.5331C69.5782 42.9755 69.7007 43.3377 69.8934 43.622C70.0862 43.9055 70.3835 44.1341 70.7877 44.3093C71.1926 44.4837 71.6475 44.5698 72.1533 44.5698C72.603 44.5698 72.9982 44.5045 73.3419 44.3724C73.6855 44.2388 73.9425 44.0577 74.1106 43.8269C74.278 43.5945 74.3631 43.3437 74.3631 43.0698C74.3631 42.7922 74.2824 42.5517 74.1188 42.3439C73.9575 42.136 73.6893 41.9631 73.3187 41.8228C73.0782 41.7308 72.553 41.5868 71.735 41.3916C70.9192 41.1956 70.3454 41.0123 70.0182 40.8394C69.5939 40.6189 69.2764 40.3435 69.0672 40.0162C68.8602 39.6896 68.7564 39.323 68.7564 38.9155C68.7564 38.4709 68.8827 38.0538 69.1374 37.6663C69.3922 37.2774 69.7649 36.9827 70.2535 36.7816C70.7443 36.5812 71.2875 36.481 71.8859 36.481C72.5463 36.481 73.126 36.5864 73.6318 36.7979C74.1353 37.0079 74.523 37.3189 74.7934 37.7279C75.0631 38.1376 75.2096 38.603 75.2305 39.1211L74.1017 39.2057C74.0396 38.6475 73.8342 38.2237 73.4846 37.9402C73.1342 37.6544 72.618 37.5127 71.9352 37.5127C71.2225 37.5127 70.7048 37.6418 70.3783 37.9016C70.0533 38.1606 69.889 38.4739 69.889 38.8376C69.889 39.1567 70.0047 39.418 70.2348 39.6221C70.4627 39.8277 71.0529 40.0377 72.0099 40.2515C72.9669 40.4675 73.6235 40.6545 73.9791 40.8149C74.4969 41.0539 74.8801 41.3537 75.1266 41.7167C75.3732 42.0811 75.4949 42.5005 75.4949 42.974C75.4949 43.4453 75.3612 43.8877 75.0893 44.3034C74.8173 44.719 74.4289 45.0426 73.9216 45.275C73.4136 45.505 72.8421 45.6208 72.2086 45.6208C71.4033 45.6208 70.7279 45.5058 70.1848 45.2712C69.6402 45.0382 69.2136 44.6886 68.9028 44.2195C68.5943 43.7519 68.4307 43.2204 68.4165 42.6304ZM83.6962 45.4702V36.6324H84.8721V45.4702H83.6962ZM97.5012 42.0024V40.9678L101.269 40.9611V44.2388C100.691 44.6982 100.094 45.0419 99.4787 45.2742C98.8639 45.5043 98.2319 45.6201 97.5864 45.6201C96.7123 45.6201 95.9174 45.4353 95.2048 45.0627C94.4898 44.6923 93.9512 44.1534 93.5874 43.452C93.2228 42.7476 93.0405 41.9616 93.0405 41.0932C93.0405 40.233 93.2228 39.4306 93.5859 38.6861C93.9459 37.9395 94.4681 37.385 95.1472 37.0235C95.8263 36.6628 96.6092 36.4824 97.496 36.4824C98.1385 36.4824 98.7197 36.5856 99.2404 36.7934C99.7604 36.999 100.168 37.287 100.463 37.6574C100.758 38.0285 100.983 38.5095 101.137 39.104L100.075 39.3942C99.9396 38.9437 99.7746 38.5896 99.5781 38.3321C99.3794 38.0753 99.0955 37.8697 98.7264 37.7146C98.3596 37.5602 97.9502 37.4822 97.5027 37.4822C96.9641 37.4822 96.4987 37.5646 96.1072 37.7272C95.7128 37.8897 95.3982 38.1035 95.1562 38.3692C94.9156 38.6349 94.7296 38.9251 94.5944 39.2443C94.3695 39.7891 94.2552 40.3821 94.2552 41.0219C94.2552 41.8102 94.3919 42.4686 94.6646 42.9993C94.938 43.53 95.3362 43.9233 95.8577 44.1802C96.3791 44.4377 96.9327 44.5669 97.5184 44.5669C98.0302 44.5669 98.5269 44.4674 99.0118 44.2722C99.4981 44.0785 99.8649 43.8706 100.116 43.6495V42.0032H97.5012V42.0024ZM109.381 45.4702V36.6324H110.588L115.261 43.5708V36.6324H116.39V45.4702H115.183L110.511 38.5251V45.4702H109.381Z" fill="#111111"/>
<path d="M54.1621 45.4701V36.6323H60.5928V37.6752H55.3387V40.3806H60.2597V41.4183H55.3387V44.4265H60.7998V45.4701H54.1621Z" fill="#0C7FFC"/>
</g>
<defs>
<clipPath id="clip0_982_2407">
<rect width="119" height="46" fill="white"/>
</clipPath>
</defs>
</svg>
